PathFileType  4	(X/Y/Z) C:\Users\antoi\Documents\MyRepositories\mobilecap\ResultsAnalysis
DataRate	CameraRate	NumFrames	NumMarkers	Units	OrigDataRate	OrigDataStartFrame	OrigNumFrames
100.0	100.0	7	51	mm	100.0	144	286
Frame#	Time	r_knee			r_shank_antsup			r_ankle			r_calc			r_5meta			r_toe			L_knee			L_shank_antsup			L_ankle			L_calc			L_5meta			L_toe			r_sh2			r_sh3			r_sh4			L_sh2			L_sh3			r_thigh1			r_thigh2			r_thigh3			r_thigh4			r_thigh5			L_thigh1			L_thigh2			L_thigh3			L_thigh4			r.ASIS			r.PSIS			L.ASIS			L.PSIS			C7			R_Shoulder			L_Shoulder			R_Sternum			L_Sternum			R_humerus			R_elbow_med			R_elbow_lat			R_forearm			R_wrist_radius			R_wrist_ulna			L_humerus			L_elbow_med			L_elbow_lat			L_forearm			L_wrist_radius			L_wrist_ulna			R_HJC			L_HJC			R_HJC_reg			L_HJC_reg			
		X1	Y1	Z1	X2	Y2	Z2	X3	Y3	Z3	X4	Y4	Z4	X5	Y5	Z5	X6	Y6	Z6	X7	Y7	Z7	X8	Y8	Z8	X9	Y9	Z9	X10	Y10	Z10	X11	Y11	Z11	X12	Y12	Z12	X13	Y13	Z13	X14	Y14	Z14	X15	Y15	Z15	X16	Y16	Z16	X17	Y17	Z17	X18	Y18	Z18	X19	Y19	Z19	X20	Y20	Z20	X21	Y21	Z21	X22	Y22	Z22	X23	Y23	Z23	X24	Y24	Z24	X25	Y25	Z25	X26	Y26	Z26	X27	Y27	Z27	X28	Y28	Z28	X29	Y29	Z29	X30	Y30	Z30	X31	Y31	Z31	X32	Y32	Z32	X33	Y33	Z33	X34	Y34	Z34	X35	Y35	Z35	X36	Y36	Z36	X37	Y37	Z37	X38	Y38	Z38	X39	Y39	Z39	X40	Y40	Z40	X41	Y41	Z41	X42	Y42	Z42	X43	Y43	Z43	X44	Y44	Z44	X45	Y45	Z45	X46	Y46	Z46	X47	Y47	Z47	X48	Y48	Z48	X49	Y49	Z49	X50	Y50	Z50	X51	Y51	Z51	

144	1.43000000	-237.65640	680.97390	-368.84323	-192.62607	537.19076	-369.76832	-230.47919	181.60209	-349.93144	-292.75764	178.75894	-418.16681	-134.87921	69.71643	-322.23628	-87.39713	74.98519	-372.79790	-296.54287	762.89751	-852.15515	-246.37333	568.38415	-880.45737	-357.13233	278.24552	-906.01645	-405.44153	252.78957	-833.43033	-252.25248	159.97059	-969.47281	-194.18108	183.78481	-924.10252	-182.64874	423.40093	-370.78027	-254.16520	529.54635	-328.23069	-247.87068	418.83983	-320.43933	-324.47877	590.87476	-915.56376	-343.28961	471.67826	-912.40115	-349.04115	955.08226	-343.25906	-277.15016	869.25515	-348.49177	-310.76255	810.16475	-334.03442	-437.77463	884.77058	-352.20408	-361.18227	791.20352	-352.52811	-396.27064	1032.55088	-766.84279	-322.68697	928.59701	-809.88214	-490.02845	974.82940	-770.29180	-414.04787	870.82846	-822.59830	-394.05384	1180.72160	-400.76661	-577.96966	1240.80162	-447.25454	-448.85689	1199.23242	-661.33550	-596.40931	1253.16578	-535.25224	-353.42857	1689.10379	-503.20696	-257.32623	1610.98542	-352.00381	-325.12466	1652.88419	-676.94376	-243.25149	1569.81717	-501.99966	-250.59453	1572.80806	-551.68003	-326.40738	1380.86567	-226.61534	-445.01943	1273.68786	-224.61548	-411.40921	1312.65900	-153.09776	-224.09362	1232.48519	-213.82311	-147.51244	1201.21960	-248.67443	-152.82705	1183.89555	-215.29177	-361.03440	1448.83510	-866.12414	-466.32655	1363.01273	-885.74391	-421.93651	1409.04309	-943.84444	-235.02317	1376.41299	-874.33065	-177.04153	1368.56363	-835.95407	-170.01697	1351.18665	-864.17537	-487.31436	1099.10717	-423.74851	-532.28552	1118.53097	-615.05416	-478.29403	1104.55129	-432.76378	-514.08274	1128.54554	-603.57980	
145	1.44000000	-222.05377	655.10640	-367.63003	-176.86818	510.45199	-369.82499	-234.19015	157.84753	-347.95472	-298.35453	151.13319	-414.28857	-133.95140	54.24748	-320.81666	-88.36904	62.15159	-372.57997	-277.14722	741.41330	-854.24347	-227.74682	546.55500	-881.67381	-342.34421	258.23330	-904.98876	-390.39458	233.00864	-832.09568	-239.39574	140.40497	-970.67001	-180.62246	162.50183	-924.98413	-170.80939	396.86026	-369.83402	-237.55287	505.76265	-326.46596	-235.02763	395.01800	-317.98554	-305.73380	569.91139	-916.64325	-325.98971	450.76339	-912.72177	-338.00270	926.37485	-340.47618	-264.91230	841.63549	-345.76648	-298.24590	781.85607	-333.03780	-425.92877	855.45183	-351.82102	-348.28640	762.60893	-352.29821	-383.41793	1007.70269	-766.49120	-307.16103	906.41429	-811.07486	-475.55044	947.55581	-770.45902	-396.81705	846.20279	-824.06474	-385.59013	1150.79600	-399.18722	-569.63467	1210.57171	-446.44511	-438.57096	1169.53779	-659.73395	-587.40766	1222.27414	-534.55307	-344.89366	1658.80095	-501.27510	-247.48167	1580.50057	-350.50819	-317.69778	1623.30395	-675.12514	-234.18070	1540.02178	-500.57978	-241.72715	1543.06063	-550.39520	-310.12633	1348.13230	-225.35299	-425.75081	1238.25485	-223.26229	-392.40795	1277.58140	-151.27458	-203.43237	1203.15238	-214.57667	-126.53738	1174.65597	-250.17038	-131.33328	1156.61256	-217.24170	-349.98300	1419.86476	-865.05361	-453.53973	1332.23470	-885.81002	-409.73204	1379.59132	-943.31672	-222.73181	1350.64618	-872.62060	-164.80971	1343.85672	-834.31684	-157.23082	1326.74842	-862.40656	-478.32185	1068.88529	-422.62680	-522.12272	1088.35306	-614.19476	-469.66461	1075.58587	-431.10703	-504.14717	1098.29154	-602.10041	
146	1.45000000	-202.86323	630.90536	-366.92582	-163.35699	483.12059	-371.49378	-253.16765	134.91850	-346.28268	-318.37203	116.71605	-408.45054	-138.60560	48.89519	-319.50582	-95.84632	62.71660	-372.39914	-257.23454	719.86261	-856.43128	-209.63047	524.56475	-882.72098	-329.24075	238.48403	-902.77906	-376.68858	213.98187	-829.13986	-228.93865	120.53700	-970.52246	-169.29668	141.08752	-925.14750	-167.35587	369.79801	-370.55340	-221.58933	484.31314	-324.70984	-229.49311	374.38700	-315.50668	-287.36897	548.88186	-917.56091	-309.35925	429.92901	-912.58599	-327.47849	897.82074	-336.91530	-252.39442	815.53253	-342.50012	-284.87879	754.80047	-332.76824	-413.73723	826.27635	-352.45638	-334.30397	735.05663	-352.80588	-369.91484	982.26074	-766.02598	-290.85194	883.88931	-812.35560	-460.38294	919.56445	-770.83047	-378.70377	820.99000	-825.32488	-378.29497	1119.89220	-397.59820	-562.58084	1179.83210	-445.01707	-428.07850	1138.87790	-658.60527	-578.92894	1190.71166	-533.54787	-336.68450	1628.12352	-499.24871	-237.74374	1549.43727	-349.07828	-310.45165	1593.31693	-673.72446	-225.05497	1509.67441	-499.29458	-232.79118	1512.74714	-549.26702	-293.14283	1314.50112	-224.70444	-405.29605	1201.78471	-221.30579	-372.14357	1241.73735	-149.59146	-181.53533	1173.39080	-215.62340	-104.67661	1147.36269	-252.47329	-108.14030	1128.62202	-219.97249	-338.45326	1390.26688	-864.05466	-440.07233	1300.73227	-886.07250	-397.05768	1349.63090	-943.18366	-209.96682	1324.69863	-870.91025	-152.24354	1319.01027	-832.35482	-144.09242	1302.25522	-860.54053	-470.38077	1037.80228	-421.42518	-512.61579	1057.51299	-613.32091	-462.74814	1046.03733	-429.81814	-494.45754	1067.14192	-601.46402	
147	1.46000000	-183.01005	608.11473	-367.25574	-155.73646	456.96059	-373.18877	-272.69692	112.82537	-342.97052	-337.65179	85.25086	-401.12848	-144.37582	46.13324	-316.43052	-104.50985	65.59401	-370.34650	-237.30035	698.37429	-857.97109	-192.26671	502.97513	-883.13132	-317.60461	219.60360	-899.68033	-364.36517	195.72851	-825.14147	-219.91876	100.56651	-968.94070	-159.33825	119.53718	-924.22612	-170.63510	343.46714	-372.78101	-211.69774	462.82463	-323.71335	-229.75623	353.30975	-314.43354	-269.64448	527.73436	-917.20309	-293.56202	409.66263	-911.78689	-317.37343	870.94194	-334.04942	-240.23334	791.06403	-340.20373	-270.97397	729.51764	-331.12520	-401.64013	797.49646	-351.36037	-319.85106	708.38954	-351.62223	-355.95771	956.48341	-765.67080	-274.10994	860.97319	-813.20389	-444.85464	891.24831	-771.60857	-360.09179	795.46234	-826.38645	-372.22816	1088.66364	-395.98123	-556.67539	1148.68646	-443.46380	-417.53858	1108.01512	-658.19683	-571.10861	1158.25667	-532.88220	-328.68636	1597.46306	-497.31564	-228.20054	1518.23196	-347.88004	-302.98423	1563.12439	-672.52731	-215.74093	1478.95354	-498.15477	-223.56886	1482.17964	-548.32257	-275.37491	1280.61280	-224.26714	-383.18758	1164.83141	-218.93864	-350.84824	1205.74726	-147.85792	-158.74091	1143.16737	-217.25996	-81.77251	1119.88505	-255.26452	-83.31289	1100.15226	-223.44948	-326.52300	1360.33414	-863.36382	-425.88410	1268.76323	-886.50387	-383.87265	1319.36706	-943.27918	-196.73511	1298.75232	-869.36914	-139.29632	1294.15574	-830.20097	-130.50591	1277.73506	-858.54174	-463.17174	1006.21648	-420.49147	-503.36085	1026.25505	-612.80506	-457.18435	1016.72663	-428.58825	-485.11028	1035.24123	-601.48670	
148	1.47000000	-168.30025	588.74289	-366.24491	-149.59491	437.83375	-370.90652	-280.91956	97.77428	-338.90172	-345.18144	69.39288	-395.40383	-147.26175	42.57512	-312.37959	-109.29465	65.00260	-366.88866	-217.76988	677.00836	-858.27459	-175.42377	481.83431	-882.17532	-305.99553	201.15451	-896.40815	-352.52239	178.39013	-821.28415	-211.21450	79.80537	-965.78631	-149.89013	97.09838	-921.33870	-170.43489	324.20873	-372.69302	-206.38076	444.83295	-322.57281	-228.49147	335.31074	-314.12905	-252.31829	507.49536	-916.50856	-278.40087	390.26093	-910.08094	-308.46682	847.06188	-331.62783	-230.25688	767.67207	-337.96072	-259.65979	705.75079	-328.44351	-391.31344	771.29748	-349.33358	-308.33425	683.34440	-348.57077	-342.00251	930.81576	-765.27527	-257.58098	837.97962	-813.41354	-429.48418	863.40095	-772.66602	-341.66454	770.22128	-827.26472	-368.26098	1058.04264	-394.85907	-552.31520	1119.46562	-443.66083	-407.01914	1077.31108	-658.02165	-564.00658	1126.65298	-533.52730	-320.41996	1567.16459	-495.93762	-218.91516	1487.38856	-346.91215	-294.72345	1533.15066	-671.63005	-206.02302	1448.16596	-497.27480	-213.87393	1451.75033	-547.59260	-256.61076	1246.92442	-223.80990	-359.43698	1127.58642	-216.87179	-328.24051	1169.70294	-146.42243	-134.93613	1113.00871	-219.41288	-57.58394	1092.80600	-258.28748	-57.56324	1072.13738	-227.11249	-314.33191	1330.41388	-863.15402	-410.89902	1236.62196	-886.92585	-370.01743	1288.98164	-943.36664	-183.02077	1272.99753	-867.72150	-125.91238	1269.44225	-828.16184	-116.40839	1253.23559	-856.39490	-458.25290	975.71293	-420.06030	-495.01032	995.67535	-613.06177	-454.17051	989.86597	-427.62195	-476.77460	1003.75225	-601.61323	
149	1.48000000	-154.24288	579.47214	-362.63499	-135.12970	430.67343	-364.69470	-278.85644	96.70251	-337.37751	-343.66453	70.23707	-394.28598	-146.91487	41.21320	-310.60304	-108.92224	63.81858	-364.83075	-199.28889	655.64920	-856.64170	-158.98534	460.63926	-879.07796	-294.46617	182.36731	-892.85498	-341.53325	161.87690	-816.86378	-203.79418	60.55151	-961.48742	-141.93434	76.74310	-917.10759	-160.07944	318.35024	-368.48972	-194.72156	439.34878	-320.70034	-220.40592	330.95598	-313.16054	-234.82819	489.48675	-918.76703	-263.17046	371.05633	-907.88082	-301.03070	829.30954	-328.60872	-220.72938	751.64584	-334.86380	-248.74062	688.75000	-328.29929	-381.06512	751.70871	-350.05685	-296.53912	665.53966	-347.82857	-328.85940	905.81109	-764.58813	-242.14311	815.27602	-812.87373	-415.09989	836.79712	-773.66995	-324.55543	745.61412	-827.32382	-366.96814	1028.67002	-394.66679	-549.85775	1094.11301	-447.26291	-397.03654	1046.95260	-657.42871	-557.88844	1098.28405	-537.02175	-311.16221	1537.41058	-495.43937	-209.85864	1457.28491	-345.98163	-285.22000	1503.92728	-671.35025	-195.76225	1417.78375	-496.71431	-203.45422	1421.75737	-546.97005	-236.84489	1213.98137	-223.66841	-334.55737	1090.13002	-215.73242	-303.89063	1133.69777	-145.93119	-109.91696	1083.70734	-222.06099	-32.29534	1066.00296	-262.05825	-31.26334	1045.17876	-230.90501	-301.71491	1300.87723	-863.33543	-395.18007	1204.74815	-887.30708	-355.37652	1258.74313	-943.39628	-168.72929	1247.28064	-865.93866	-112.07492	1245.03162	-826.16070	-101.80573	1228.88268	-854.06213	-457.41996	947.77795	-420.52700	-488.52719	966.91613	-614.57815	-454.58052	966.08903	-427.73149	-470.12744	974.17103	-601.77611	
150	1.49000000	-132.32812	581.47123	-357.84109	-112.03460	431.92930	-359.11909	-272.41030	105.65843	-339.65308	-338.83731	79.00230	-398.17430	-145.23654	42.88558	-311.88981	-105.48781	63.73853	-365.25898	-182.17879	634.92129	-852.60607	-144.01314	439.39385	-872.94127	-287.75054	165.64653	-887.29265	-336.04366	145.67054	-810.29794	-200.06905	49.38834	-957.30529	-137.79408	65.61602	-913.42592	-143.43029	322.18902	-363.80657	-172.67763	445.11259	-318.22814	-206.15750	338.92420	-311.25693	-217.61894	472.99134	-923.19892	-248.89357	352.01402	-905.14287	-295.03312	819.87025	-326.53186	-209.32160	749.01999	-331.85480	-233.50334	683.88788	-328.34750	-368.44593	738.46066	-351.23404	-278.83430	658.49182	-348.51727	-317.43013	881.94682	-763.68096	-228.34082	793.26997	-811.03126	-402.29612	811.57429	-774.45810	-309.21309	721.78234	-826.04270	-367.18569	1000.75064	-395.03282	-548.42605	1070.98170	-453.56496	-388.38971	1017.41813	-656.25422	-552.81734	1073.06771	-543.78287	-300.42250	1508.20259	-495.90362	-200.95847	1427.96748	-345.08415	-273.95320	1475.33095	-671.78010	-185.31728	1388.09575	-496.30250	-192.41737	1392.07482	-546.26126	-216.38331	1182.69192	-224.24761	-308.66460	1053.53516	-215.74889	-278.05863	1098.74170	-146.37154	-83.70550	1055.71370	-225.25705	-6.47247	1039.77288	-266.77429	-4.38665	1019.31741	-235.30342	-288.28623	1272.15797	-863.70546	-378.88436	1173.62041	-887.76328	-339.99302	1228.96585	-943.40318	-153.79051	1221.56640	-864.26282	-97.74008	1221.02035	-824.00423	-86.68224	1204.86582	-851.59510	-459.37468	922.07746	-422.08001	-483.37149	939.80559	-617.28032	-456.29465	942.84108	-429.23757	-464.75416	946.86234	-602.31482	
